<?xml version="1.0" encoding="utf-8"?>
<!-- Generator: Adobe Illustrator 19.0.0, SVG Export Plug-In . SVG Version: 6.00 Build 0)  -->
<svg version="1.1" id="Layer_1" xmlns="http://www.w3.org/2000/svg" xmlns:xlink="http://www.w3.org/1999/xlink" x="0px" y="0px"
	 viewBox="0 0 5328 890" style="enable-background:new 0 0 5328 890;" xml:space="preserve">
<style type="text/css">
	.st0{fill:#E6E7E8;}
	.st1{font-family:'ShorelinesScriptBold';}
	.st2{font-size:369.0541px;}
</style>
<text id="XMLID_1_" transform="matrix(1 0 0 1 558.9861 558.2899)" class="st0 st1 st2">find your favourites</text>
<path id="XMLID_2_" class="st0" d="M505,375.6c-87.7,31.5-131.6,47.3-155,52.7c-8.4,2-163.3,36.2-213.2-37.8
	c-31.1-46.1-12.4-122.1,15.5-148.8c1-0.9,16-15.2,18.6-13c2,1.7-4.5,11.9-10.8,23.8c-6.1,11.4-19.7,37.2-24.2,62.2
	c-2,11.3-6.3,35.8,6.2,59.9c12.5,24,34.8,34.1,46.7,39.5c28.2,12.8,53.5,11.2,89,8.9c27.8-1.8,48.4-6.4,71.7-11.6
	c30.4-6.8,55.9-14.7,75.4-21.6c1.2-0.4,2.2-0.8,2.7-0.9c17.8-6.3,42.1-14.9,66.5-27.9c12.1-6.4,22-12.7,42.2-22.1
	c12.6-5.8,19-8.1,22.3-5.2c4.4,3.8,2.7,15.9-3.5,21.1c-1.3,1.1-2.1,1.3-7.3,3.4c-10.3,4.2-1.5,1-15.2,6.4
	C520.2,369.9,513.9,372.4,505,375.6z"/>
<path id="XMLID_3_" class="st0" d="M4733.7,376.5c1.6-4.8,7.6-11,60.8-17.8c5.4-0.7,14.8-1.8,41.9-3.7c32.1-2.2,48.2-3.4,68.5-3.5
	c29.5-0.2,52,1.3,66.8,2.4c63.4,4.9,82.3,13.8,95,0.8c10.3-10.6,11-29.9,6.5-42.4c-4.2-11.6-13.9-20-21.9-27
	c-7.8-6.8-11.5-7.9-19.1-15.7c-4.6-4.7-16.3-17.6-14.3-20.1c2.9-3.5,31.7,14.9,52.8,33.8c9.1,8.1,14.8,14.6,19,23.7
	c2.1,4.6,6.4,14.2,5.3,26.1c-1.4,16.5-12.3,30.9-24.6,38.2c-6.3,3.7-14.5,6.6-62,1.5c-36.1-3.9-38.3-6.3-61.7-7.1
	c-20.5-0.7-38,0.4-46,1c-16.4,1.1-29.4,2.9-39.6,4.3c-21.8,3-22,3.5-42.5,6.6c-6.5,1-14.3,1.9-30.8,4.1c-4.9,0.7-7,1-10.1,1.5
	c-3.5,0.6-11.3,2.1-23.3,5.5c-11.5,3.2-13.5,4.3-16.2,2.9C4734.3,389.1,4732,381.9,4733.7,376.5z"/>
</svg>
